<?xml version="1.0" encoding="UTF-8"?>
<svg id="Layer_5" xmlns="http://www.w3.org/2000/svg" version="1.1" viewBox="0 0 24 24">
  <!-- Generator: Adobe Illustrator 30.3.0, SVG Export Plug-In . SVG Version: 2.1.3 Build 182)  -->
  <defs>
    <style>
      .st0 {
        fill: #fff;
      }
    </style>
  </defs>
  <g id="Lock">
    <g id="Rubber_Stamp">
      <path class="st0" d="M17.79,6.9h-3.86c-1.34,0-2.43-1.09-2.43-2.43V.61c0-.2.12-.38.31-.46.19-.08.4-.03.54.11l5.79,5.79c.14.14.19.36.11.54-.08.19-.26.31-.46.31ZM12.5,1.82v2.65c0,.79.64,1.43,1.43,1.43h2.65L12.5,1.82Z"/>
      <path class="st0" d="M8.14,23.89h-3.86c-1.34,0-2.43-1.09-2.43-2.43V2.54C1.85,1.2,2.94.11,4.28.11h7.72c.28,0,.5.22.5.5s-.22.5-.5.5h-7.72c-.79,0-1.43.64-1.43,1.43v18.92c0,.79.64,1.43,1.43,1.43h3.86c.28,0,.5.22.5.5s-.22.5-.5.5Z"/>
      <path class="st0" d="M8.14,6.9h-1.93c-.28,0-.5-.22-.5-.5s.22-.5.5-.5h1.93c.28,0,.5.22.5.5s-.22.5-.5.5Z"/>
      <path class="st0" d="M10.07,10.76h-3.86c-.28,0-.5-.22-.5-.5s.22-.5.5-.5h3.86c.28,0,.5.22.5.5s-.22.5-.5.5Z"/>
    </g>
    <path class="st0" d="M19.72,23.89h-5.79c-1.34,0-2.43-1.09-2.43-2.43v-3.86c0-1.34,1.09-2.43,2.43-2.43h5.79c1.34,0,2.43,1.09,2.43,2.43v3.86c0,1.34-1.09,2.43-2.43,2.43ZM13.93,16.17c-.79,0-1.43.64-1.43,1.43v3.86c0,.79.64,1.43,1.43,1.43h5.79c.79,0,1.43-.64,1.43-1.43v-3.86c0-.79-.64-1.43-1.43-1.43h-5.79Z"/>
    <path class="st0" d="M19.72,16.17h-5.79c-.28,0-.5-.22-.5-.5v-2.51c0-1.87,1.52-3.4,3.4-3.4s3.4,1.52,3.4,3.4v2.51c0,.28-.22.5-.5.5ZM14.43,15.17h4.79v-2.01c0-1.32-1.07-2.4-2.4-2.4s-2.4,1.07-2.4,2.4v2.01Z"/>
  </g>
  <circle class="st0" cx="16.83" cy="19.67" r=".97"/>
</svg>