<?xml version="1.0" encoding="UTF-8"?>
<svg id="Layer_5" xmlns="http://www.w3.org/2000/svg" version="1.1" viewBox="0 0 24 24">
  <!-- Generator: Adobe Illustrator 30.3.0, SVG Export Plug-In . SVG Version: 2.1.3 Build 182)  -->
  <defs>
    <style>
      .st0 {
        fill: #fff;
      }

      .st1 {
        fill: none;
      }
    </style>
  </defs>
  <rect class="st1" y="0" width="24" height="24"/>
  <g id="g442">
    <g id="g448">
      <g id="path450">
        <path class="st0" d="M21.42,23.8H2.58c-1.31,0-2.38-1.07-2.38-2.38V2.58C.2,1.27,1.27.2,2.58.2h18.84c1.31,0,2.38,1.07,2.38,2.38v18.84c0,1.31-1.07,2.38-2.38,2.38ZM2.58,1.2c-.76,0-1.38.62-1.38,1.38v18.84c0,.76.62,1.38,1.38,1.38h18.84c.76,0,1.38-.62,1.38-1.38V2.58c0-.76-.62-1.38-1.38-1.38H2.58Z"/>
      </g>
    </g>
    <g id="g452">
      <g id="path454">
        <path class="st0" d="M23.25,6.88H.7c-.28,0-.5-.22-.5-.5s.22-.5.5-.5h22.55c.28,0,.5.22.5.5s-.22.5-.5.5Z"/>
      </g>
    </g>
    <g id="g456">
      <g id="path458">
        <path class="st0" d="M21.14,3.56c0,.39-.31.7-.7.7s-.7-.31-.7-.7.31-.7.7-.7.7.31.7.7"/>
      </g>
    </g>
    <g id="g460">
      <g id="path462">
        <path class="st0" d="M18.33,3.56c0,.39-.31.7-.7.7s-.7-.31-.7-.7.31-.7.7-.7.7.31.7.7"/>
      </g>
    </g>
    <g id="g464">
      <g id="path466">
        <path class="st0" d="M15.52,3.56c0,.39-.31.7-.7.7s-.7-.31-.7-.7.31-.7.7-.7.7.31.7.7"/>
      </g>
    </g>
    <g id="g468">
      <g id="path470">
        <path class="st0" d="M16.22,11.09H7.78c-.28,0-.5-.22-.5-.5s.22-.5.5-.5h8.44c.28,0,.5.22.5.5s-.22.5-.5.5Z"/>
      </g>
    </g>
    <g id="g472">
      <g id="path474">
        <path class="st0" d="M19.03,13.91H4.97c-.28,0-.5-.22-.5-.5s.22-.5.5-.5h14.06c.28,0,.5.22.5.5s-.22.5-.5.5Z"/>
      </g>
    </g>
    <g id="g476">
      <g id="path478">
        <path class="st0" d="M8.48,17.63c0,.78.63,1.41,1.41,1.41h4.22c.78,0,1.41-.63,1.41-1.41s-.63-1.41-1.41-1.41h-4.22c-.78,0-1.41.63-1.41,1.41Z"/>
      </g>
    </g>
  </g>
</svg>