<?xml version="1.0" encoding="UTF-8"?>
<svg id="Layer_6" xmlns="http://www.w3.org/2000/svg" version="1.1" viewBox="0 0 24 24">
  <!-- Generator: Adobe Illustrator 30.3.0, SVG Export Plug-In . SVG Version: 2.1.3 Build 182)  -->
  <defs>
    <style>
      .st0 {
        fill: #fff;
      }
    </style>
  </defs>
  <g id="Clipboard">
    <path class="st0" d="M19.77,23.96H4.23c-1.35,0-2.44-1.09-2.44-2.44V4.43c0-1.35,1.1-2.44,2.44-2.44.28,0,.5.22.5.5s-.22.5-.5.5c-.79,0-1.44.65-1.44,1.44v17.09c0,.79.65,1.44,1.44,1.44h15.54c.79,0,1.44-.65,1.44-1.44V4.43c0-.79-.65-1.44-1.44-1.44-.28,0-.5-.22-.5-.5s.22-.5.5-.5c1.35,0,2.44,1.1,2.44,2.44v17.09c0,1.35-1.1,2.44-2.44,2.44Z"/>
    <path class="st0" d="M13.94,2.98h-3.88c-.28,0-.5-.22-.5-.5s.22-.5.5-.5h3.88c.28,0,.5.22.5.5s-.22.5-.5.5Z"/>
    <path class="st0" d="M12,2.98c-.28,0-.5-.22-.5-.5V.54c0-.28.22-.5.5-.5s.5.22.5.5v1.94c0,.28-.22.5-.5.5Z"/>
    <path class="st0" d="M17.83,14.44h-5.83c-.28,0-.5-.22-.5-.5s.22-.5.5-.5h5.83c.28,0,.5.22.5.5s-.22.5-.5.5Z"/>
    <path class="st0" d="M17.83,20.27h-5.83c-.28,0-.5-.22-.5-.5s.22-.5.5-.5h5.83c.28,0,.5.22.5.5s-.22.5-.5.5Z"/>
    <path class="st0" d="M7.15,14.44h0c-.13,0-.26-.05-.35-.15l-.97-.97c-.2-.2-.2-.51,0-.71s.51-.2.71,0l.62.62,1.59-1.59c.2-.2.51-.2.71,0s.2.51,0,.71l-1.94,1.94c-.09.09-.22.15-.35.15Z"/>
    <path class="st0" d="M17.83,8.62h-5.83c-.28,0-.5-.22-.5-.5s.22-.5.5-.5h5.83c.28,0,.5.22.5.5s-.22.5-.5.5Z"/>
    <path class="st0" d="M7.15,8.62c-.13,0-.26-.05-.35-.15l-.97-.97c-.2-.2-.2-.51,0-.71s.51-.2.71,0l.62.62,1.59-1.59c.2-.2.51-.2.71,0s.2.51,0,.71l-1.94,1.94c-.1.1-.23.15-.35.15Z"/>
    <path class="st0" d="M7.15,20.27c-.13,0-.26-.05-.35-.15l-.97-.97c-.2-.2-.2-.51,0-.71s.51-.2.71,0l.62.62,1.59-1.59c.2-.2.51-.2.71,0s.2.51,0,.71l-1.94,1.94c-.1.1-.23.15-.35.15Z"/>
    <path class="st0" d="M6.17,2.98h-1.94c-.28,0-.5-.22-.5-.5s.22-.5.5-.5h1.94c.28,0,.5.22.5.5s-.22.5-.5.5Z"/>
    <path class="st0" d="M19.77,2.98h-1.94c-.28,0-.5-.22-.5-.5s.22-.5.5-.5h1.94c.28,0,.5.22.5.5s-.22.5-.5.5Z"/>
  </g>
</svg>