<?xml version="1.0" encoding="UTF-8"?>
<svg id="Layer_5" xmlns="http://www.w3.org/2000/svg" version="1.1" viewBox="0 0 24 24">
  <!-- Generator: Adobe Illustrator 30.3.0, SVG Export Plug-In . SVG Version: 2.1.3 Build 182)  -->
  <defs>
    <style>
      .st0 {
        fill: #fff;
        fill-rule: evenodd;
      }
    </style>
  </defs>
  <path class="st0" d="M23.45,17.89c-.52.52-1.37.52-1.89,0l-3.63-3.63c-.24-.24-.25-.62-.03-.88l-.15-.15c-.35-.35-.88-.42-1.3-.16-.49.29-1.02.52-1.59.67v-1.53c1.85-.66,3.17-2.42,3.17-4.5,0-2.63-2.14-4.77-4.77-4.77s-4.77,2.14-4.77,4.77c0,1.29.51,2.46,1.34,3.31l-.38.48c-.09-.01-.19-.02-.28-.02-.27,0-.52.05-.76.15-.87-1.07-1.39-2.44-1.39-3.92,0-3.44,2.79-6.24,6.24-6.24s6.24,2.79,6.24,6.24c0,1.16-.32,2.25-.87,3.18-.25.43-.19.95.16,1.3l.15.15c.25-.22.64-.21.88.03l3.63,3.63c.52.52.52,1.37,0,1.89ZM2.41,18.69H.55c-.13,0-.24.11-.24.24v3.36c0,.13.11.24.24.24h1.86c.13,0,.24-.11.24-.24v-3.36c0-.13-.11-.24-.24-.24ZM6.25,14.26h-1.86c-.13,0-.24.11-.24.24v7.8c0,.13.11.24.24.24h1.86c.13,0,.24-.11.24-.24v-7.8c0-.13-.11-.24-.24-.24ZM10.1,15.89h-1.86c-.13,0-.24.11-.24.24v6.16c0,.13.11.24.24.24h1.86c.13,0,.24-.11.24-.24v-6.16c0-.13-.11-.24-.24-.24ZM13.94,11.78h-1.86c-.13,0-.24.11-.24.24v10.28c0,.13.11.24.24.24h1.86c.13,0,.24-.11.24-.24v-10.28c0-.13-.11-.24-.24-.24ZM14.33,8.65c0,.73-.59,1.32-1.32,1.32-.19,0-.37-.04-.53-.11l-2.26,2.83c.16.22.26.49.26.79,0,.73-.59,1.32-1.32,1.32s-1.32-.59-1.32-1.32c0-.11.01-.21.04-.31l-1.61-.87c-.24.26-.58.42-.96.42-.19,0-.36-.04-.52-.11l-2.27,2.88c.17.22.26.49.26.79,0,.73-.59,1.32-1.32,1.32s-1.32-.59-1.32-1.32.59-1.32,1.32-1.32c.19,0,.36.04.52.11l2.27-2.88c-.17-.22-.26-.49-.26-.79,0-.73.59-1.32,1.32-1.32s1.32.59,1.32,1.32c0,.11-.01.21-.04.31l1.61.87c.24-.26.58-.42.96-.42.19,0,.37.04.53.11l2.26-2.83c-.16-.22-.26-.49-.26-.78,0-.73.59-1.32,1.32-1.32s1.32.59,1.32,1.32h0ZM2.12,16.27c0-.36-.29-.64-.64-.64s-.64.29-.64.64.29.64.64.64.64-.29.64-.64ZM5.97,11.39c0-.36-.29-.64-.64-.64s-.64.29-.64.64.29.64.64.64.64-.29.64-.64ZM9.81,13.46c0-.36-.29-.64-.64-.64s-.64.29-.64.64.29.64.64.64.64-.29.64-.64ZM13.66,8.65c0-.36-.29-.64-.64-.64s-.64.29-.64.64.29.64.64.64.64-.29.64-.64Z"/>
</svg>