<?xml version="1.0" encoding="UTF-8"?>
<svg id="Layer_5" xmlns="http://www.w3.org/2000/svg" version="1.1" viewBox="0 0 24 24">
  <!-- Generator: Adobe Illustrator 30.3.0, SVG Export Plug-In . SVG Version: 2.1.3 Build 182)  -->
  <defs>
    <style>
      .st0 {
        fill: #fff;
      }
    </style>
  </defs>
  <path class="st0" d="M12,21.91c-.15,0-.3-.07-.39-.19l-1.5-1.93H2.53c-1.31,0-2.38-1.07-2.38-2.38V4.47C.15,3.16,1.21,2.09,2.53,2.09h18.94c1.31,0,2.38,1.07,2.38,2.38v12.93c0,1.32-1.07,2.38-2.38,2.38h-7.58l-1.5,1.93c-.09.12-.24.19-.39.19ZM2.53,3.09c-.76,0-1.38.62-1.38,1.38v12.93c0,.76.62,1.38,1.38,1.38h7.82c.15,0,.3.07.39.19l1.26,1.61,1.26-1.61c.09-.12.24-.19.39-.19h7.82c.76,0,1.38-.62,1.38-1.38V4.47c0-.76-.62-1.38-1.38-1.38H2.53Z"/>
  <path class="st0" d="M12,16.97c-3.31,0-5.99-2.69-5.99-5.99s2.69-5.99,5.99-5.99,5.99,2.69,5.99,5.99-2.69,5.99-5.99,5.99ZM12,5.98c-2.75,0-4.99,2.24-4.99,4.99s2.24,4.99,4.99,4.99,4.99-2.24,4.99-4.99-2.24-4.99-4.99-4.99Z"/>
  <g id="g443">
    <g id="path445">
      <path class="st0" d="M11.13,13.31c-.13,0-.26-.05-.35-.15l-1.58-1.58c-.2-.2-.2-.51,0-.71s.51-.2.71,0l1.23,1.23,2.97-2.97c.2-.2.51-.2.71,0s.2.51,0,.71l-3.32,3.32c-.1.1-.23.15-.35.15Z"/>
    </g>
  </g>
</svg>