<?xml version="1.0" encoding="UTF-8"?>
<svg id="Layer_5" xmlns="http://www.w3.org/2000/svg" version="1.1" xmlns:xlink="http://www.w3.org/1999/xlink" viewBox="0 0 24 24">
  <!-- Generator: Adobe Illustrator 30.3.0, SVG Export Plug-In . SVG Version: 2.1.3 Build 182)  -->
  <defs>
    <style>
      .st0 {
        fill: #fff;
      }

      .st1 {
        fill: none;
      }

      .st2 {
        clip-path: url(#clippath);
      }
    </style>
    <clipPath id="clippath">
      <rect class="st1" width="24" height="24"/>
    </clipPath>
  </defs>
  <g id="g1248">
    <g id="g1250">
      <g class="st2">
        <g id="g1252">
          <g id="g1258">
            <g id="path1260">
              <path class="st0" d="M12.7,6.38c0,.39.31.7.7.7s.7-.31.7-.7-.31-.7-.7-.7-.7.31-.7.7"/>
            </g>
          </g>
          <g id="g1262">
            <g id="path1264">
              <path class="st0" d="M15.52,6.38c0,.39.31.7.7.7s.7-.31.7-.7-.31-.7-.7-.7-.7.31-.7.7"/>
            </g>
          </g>
          <g id="g1266">
            <g id="path1268">
              <path class="st0" d="M18.33,6.38c0,.39.31.7.7.7s.7-.31.7-.7-.31-.7-.7-.7-.7.31-.7.7"/>
            </g>
          </g>
          <g id="g1270">
            <g id="path1272">
              <path class="st0" d="M15.81,22.34C7.79,22.34.2,14.78.2,6.79c0-1.05.85-1.9,1.91-1.9h2.81c.22,0,.41.14.47.34l1.41,4.21c.05.15.03.31-.06.44l-1.26,1.88c.9,1.98,3.33,4.38,5.34,5.3l1.88-1.26c.13-.09.29-.1.44-.06l4.21,1.41c.2.07.34.26.34.47v2.81c0,1.05-.85,1.91-1.9,1.91ZM2.11,5.89c-.5,0-.91.4-.91.9,0,7.48,7.1,14.56,14.6,14.56.49,0,.9-.41.9-.91v-2.45l-3.64-1.21-1.91,1.27c-.14.09-.31.11-.46.05-2.39-.96-5.3-3.85-6.24-6.19-.06-.15-.04-.33.05-.46l1.27-1.91-1.21-3.64h-2.45Z"/>
            </g>
          </g>
          <g id="g1274">
            <g id="path1276">
              <path class="st0" d="M13.41,13.91c-.06,0-.13-.01-.19-.04-.19-.08-.31-.26-.31-.46v-2.34c-2.37-.25-4.22-2.26-4.22-4.69,0-2.6,2.12-4.72,4.72-4.72h5.62c2.63,0,4.77,2.12,4.77,4.72s-2.14,4.72-4.77,4.72h-2.61l-2.67,2.67c-.1.1-.22.15-.35.15ZM13.41,2.66c-2.05,0-3.72,1.67-3.72,3.72s1.67,3.72,3.72,3.72c.28,0,.5.22.5.5v1.61l1.96-1.96c.09-.09.22-.15.35-.15h2.81c2.08,0,3.77-1.67,3.77-3.72s-1.69-3.72-3.77-3.72h-5.62Z"/>
            </g>
          </g>
        </g>
      </g>
    </g>
  </g>
</svg>