<?xml version="1.0" encoding="UTF-8"?>
<svg id="Layer_5" xmlns="http://www.w3.org/2000/svg" version="1.1" viewBox="0 0 24 24">
  <!-- Generator: Adobe Illustrator 30.3.0, SVG Export Plug-In . SVG Version: 2.1.3 Build 182)  -->
  <defs>
    <style>
      .st0 {
        fill: #fff;
      }
    </style>
  </defs>
  <circle class="st0" cx="16.83" cy="19.67" r=".97"/>
  <g id="Startup">
    <path class="st0" d="M8.77,18.61c-.63,0-1.25-.25-1.71-.71h0l-.96-.96c-.66-.66-.88-1.65-.56-2.53l.34-.93c1.05-2.91,2.35-6.54,4.77-8.96C16-.84,22.99.26,23.28.31c.21.04.38.2.41.41.05.29,1.15,7.27-4.21,12.63-2.42,2.42-6.05,3.73-8.97,4.77l-.93.33c-.27.1-.54.14-.82.14ZM7.77,17.19c.39.39.97.52,1.48.33l.93-.34c2.82-1.01,6.33-2.27,8.6-4.54,4.31-4.31,4.11-9.92,3.97-11.39-1.48-.14-7.08-.35-11.39,3.97-2.27,2.27-3.53,5.77-4.54,8.59l-.34.94c-.19.51-.06,1.09.33,1.48l.96.96Z"/>
    <path class="st0" d="M6.82,12.83c-.12,0-.25-.05-.35-.14-1.38-1.33-3.34-1.91-5.23-1.55-.22.04-.43-.06-.54-.26s-.07-.43.09-.59l2.39-2.39c1.6-1.6,4.11-1.71,5.84-.26.21.18.24.49.06.7-.18.21-.49.24-.7.06-1.33-1.11-3.26-1.03-4.49.2l-1.42,1.42c1.73.03,3.42.71,4.69,1.93.2.19.21.51.01.71-.1.1-.23.15-.36.15Z"/>
    <path class="st0" d="M13.35,23.34c-.08,0-.16-.02-.23-.06-.19-.1-.3-.32-.26-.54.36-1.89-.22-3.84-1.55-5.23-.19-.2-.19-.52.01-.71.2-.19.52-.18.71.01,1.22,1.27,1.9,2.96,1.93,4.69l1.42-1.42c1.23-1.23,1.32-3.16.2-4.49-.18-.21-.15-.53.06-.7.21-.18.53-.15.7.06,1.45,1.73,1.33,4.24-.26,5.84l-2.39,2.39c-.1.1-.22.15-.35.15Z"/>
    <path class="st0" d="M.69,23.81c-.13,0-.26-.05-.35-.15-.12-.12-.17-.28-.14-.44.11-.58.68-3.51,1.49-4.33.94-.94,2.47-.94,3.42,0h0c.46.46.71,1.06.71,1.71s-.25,1.25-.71,1.71c-.82.82-3.75,1.39-4.33,1.49-.03,0-.06,0-.09,0ZM3.4,19.18c-.36,0-.73.14-1,.41-.36.36-.79,1.83-1.07,3.07,1.24-.27,2.71-.71,3.07-1.07.27-.27.42-.62.42-1s-.15-.73-.42-1h0c-.28-.28-.64-.41-1-.41Z"/>
    <path class="st0" d="M22.32,8.56c-.13,0-.26-.05-.35-.15l-6.38-6.38c-.2-.2-.2-.51,0-.71s.51-.2.71,0l6.38,6.38c.2.2.2.51,0,.71-.1.1-.23.15-.35.15Z"/>
    <circle class="st0" cx="14.39" cy="9.61" r="1.92"/>
  </g>
</svg>